<?xml version="1.0" standalone="no"?>
<!DOCTYPE svg PUBLIC "-//W3C//DTD SVG 20010904//EN"
 "http://www.w3.org/TR/2001/REC-SVG-20010904/DTD/svg10.dtd">
<svg version="1.0" xmlns="http://www.w3.org/2000/svg"
 width="709.000000pt" height="169.000000pt" viewBox="0 0 709.000000 169.000000"
 preserveAspectRatio="xMidYMid meet">
<metadata>
</metadata>
<g transform="translate(0.000000,169.000000) scale(0.100000,-0.100000)"
fill="#2b61e7" stroke="none">
<path d="M3593 1623 c-31 -6 -63 -50 -63 -87 0 -17 10 -63 21 -101 19 -61 22
-100 26 -310 2 -132 0 -375 -4 -540 -9 -321 -5 -388 26 -418 25 -26 99 -33
167 -17 50 12 64 11 142 -8 115 -28 144 -31 229 -21 190 21 335 162 379 369
19 87 14 261 -10 347 -42 157 -139 273 -260 313 -50 16 -161 15 -259 -4 -83
-16 -101 -14 -113 12 -4 9 -12 100 -19 202 -13 198 -22 233 -66 256 -27 13
-142 18 -196 7z m537 -662 c82 -43 120 -148 120 -330 0 -139 -18 -214 -66
-270 -86 -100 -266 -93 -321 12 -22 43 -34 234 -24 374 10 133 32 181 95 213
54 26 148 27 196 1z"/>
<path d="M2224 1571 c-17 -10 -36 -33 -44 -50 -15 -38 -8 -144 12 -168 47 -57
192 -58 249 -1 27 27 29 35 29 99 0 81 -9 103 -50 124 -43 22 -157 20 -196 -4z"/>
<path d="M200 1490 c-49 -49 -20 -197 150 -753 117 -385 122 -396 181 -461 82
-90 157 -98 229 -26 50 50 85 125 163 355 85 250 118 335 127 335 4 0 34 -75
65 -167 78 -225 148 -395 186 -455 61 -95 127 -120 208 -79 37 19 100 81 119
118 27 51 272 1010 272 1065 0 55 -13 68 -67 68 -74 0 -155 -57 -197 -138 -8
-16 -49 -160 -91 -321 -42 -162 -83 -310 -92 -330 l-15 -36 -24 50 c-12 28
-50 149 -84 270 -106 385 -125 431 -183 462 -20 10 -58 16 -99 17 -120 1 -124
-6 -219 -363 -85 -323 -120 -441 -130 -441 -11 0 -65 169 -134 420 -79 287
-117 360 -213 409 -54 28 -125 28 -152 1z"/>
<path d="M2907 1439 c-24 -14 -41 -51 -67 -144 -24 -86 -38 -108 -85 -133 -43
-22 -54 -41 -55 -91 0 -39 5 -49 44 -85 24 -23 49 -52 56 -66 9 -16 16 -103
21 -265 8 -264 22 -354 66 -417 55 -81 126 -112 248 -112 133 1 215 42 215
110 0 52 -31 81 -97 89 -151 19 -158 33 -158 340 0 289 -4 281 138 320 73 20
97 43 97 94 0 47 -19 64 -98 87 -84 25 -107 50 -133 152 -30 111 -49 132 -121
132 -29 0 -61 -5 -71 -11z"/>
<path d="M5061 1155 c-178 -40 -298 -157 -347 -336 -23 -89 -29 -252 -10 -339
44 -207 158 -324 361 -367 152 -32 368 5 468 81 36 27 42 38 45 75 4 55 -18
91 -56 91 -16 0 -71 -11 -123 -25 -206 -54 -358 -13 -405 110 -39 104 -1 123
280 135 308 13 346 33 346 181 0 175 -96 322 -246 379 -76 28 -225 35 -313 15z
m228 -198 c49 -33 70 -71 73 -132 2 -70 -6 -74 -172 -84 -166 -11 -213 -6
-218 26 -10 66 54 173 121 204 59 28 142 22 196 -14z"/>
<path d="M6141 1155 c-178 -40 -298 -157 -347 -336 -23 -89 -29 -252 -10 -339
44 -207 158 -324 361 -367 152 -32 368 5 468 81 36 27 42 38 45 75 4 55 -18
91 -56 91 -16 0 -71 -11 -123 -25 -206 -54 -358 -13 -405 110 -39 104 -1 123
280 135 308 13 346 33 346 181 0 175 -96 322 -246 379 -76 28 -225 35 -313 15z
m228 -198 c49 -33 70 -71 73 -132 2 -70 -6 -74 -172 -84 -166 -11 -213 -6
-218 26 -10 66 54 173 121 204 59 28 142 22 196 -14z"/>
<path d="M2240 1141 c-83 -8 -106 -21 -114 -66 -6 -28 0 -51 29 -114 l35 -79
0 -203 c0 -203 -5 -240 -44 -386 -20 -73 -12 -117 24 -145 53 -39 251 -35 312
6 48 31 49 91 7 211 l-32 90 -5 318 c-4 308 -5 319 -26 343 -24 28 -80 36
-186 25z"/>
</g>
</svg>
