<?xml version="1.0" standalone="no"?>
<!DOCTYPE svg PUBLIC "-//W3C//DTD SVG 20010904//EN"
 "http://www.w3.org/TR/2001/REC-SVG-20010904/DTD/svg10.dtd">
<svg version="1.0" xmlns="http://www.w3.org/2000/svg"
 width="818.000000pt" height="715.000000pt" viewBox="0 0 818.000000 715.000000"
 preserveAspectRatio="xMidYMid meet">

<g transform="translate(0.000000,715.000000) scale(0.100000,-0.100000)"
fill="#000000" stroke="none">
<path d="M7665 6891 c-3 -6 -54 -43 -113 -84 -59 -40 -131 -90 -161 -111 -30
-21 -117 -81 -195 -134 -169 -114 -721 -494 -1041 -715 -126 -87 -241 -170
-255 -183 l-25 -24 0 -776 0 -776 65 -47 c65 -48 129 -93 295 -206 132 -91
582 -380 720 -464 66 -40 185 -113 265 -163 80 -49 163 -99 185 -111 22 -12
44 -28 48 -34 4 -7 13 -13 18 -13 6 0 34 -16 63 -35 60 -40 85 -43 110 -16 15
16 18 57 26 302 5 156 10 331 11 389 1 58 3 97 6 88 6 -24 11 -23 64 10 62 40
150 141 189 217 26 51 34 81 36 133 6 124 23 803 29 1125 6 372 4 384 -78 473
-46 51 -136 114 -163 114 -7 0 -15 -40 -22 -107 -8 -86 -9 -38 -5 227 3 184 6
363 7 397 0 59 -7 84 -20 70 -3 -3 -7 -37 -7 -75 -1 -39 -5 -74 -9 -77 -4 -4
-3 -16 2 -25 6 -11 6 -45 2 -84 -5 -37 -5 -66 0 -66 5 0 6 -5 2 -11 -7 -12 -9
-63 -18 -524 -3 -148 -8 -337 -11 -420 -3 -82 -7 -256 -10 -385 -3 -129 -7
-307 -10 -395 -2 -88 -7 -272 -10 -410 -12 -502 -26 -939 -31 -944 -3 -4 -49
24 -173 105 -69 45 -290 184 -346 217 -11 7 -63 39 -115 73 -52 34 -124 79
-160 101 -36 22 -121 75 -190 118 -69 43 -138 86 -155 95 -62 36 -531 332
-542 343 -6 7 -15 53 -18 102 -7 100 -8 1228 -1 1260 2 11 5 37 5 58 1 26 5
37 16 37 8 0 15 7 15 15 0 9 -7 18 -15 21 -20 8 -19 30 1 38 12 5 13 10 6 19
-15 18 10 46 98 105 41 28 95 66 120 83 25 18 64 44 87 58 23 14 95 65 160
112 65 47 136 98 158 112 22 14 85 58 140 96 55 39 129 91 165 115 36 25 80
59 98 75 18 17 39 31 45 31 7 0 52 32 101 70 48 39 129 98 180 131 50 34 99
68 109 77 9 8 26 20 36 26 11 6 41 26 68 45 26 19 81 57 121 84 39 26 72 50
72 53 0 8 -39 4 -45 -5z m66 -1684 c-6 -216 -14 -519 -17 -674 -4 -156 -10
-283 -14 -283 -4 0 -6 37 -5 83 2 45 6 260 10 477 4 217 9 398 11 401 1 3 4
93 5 200 1 179 6 233 17 200 2 -7 -1 -189 -7 -404z m-38 -1298 c-5 -5 -7 40
-6 99 5 214 8 234 10 73 2 -91 0 -168 -4 -172z m-6 -71 c-3 -8 -6 -5 -6 6 -1
11 2 17 5 13 3 -3 4 -12 1 -19z"/>
<path d="M7732 6580 c0 -14 2 -19 5 -12 2 6 2 18 0 25 -3 6 -5 1 -5 -13z"/>
<path d="M6995 5943 c-33 -19 -103 -58 -155 -85 -52 -28 -102 -57 -111 -64 -8
-8 -19 -14 -23 -14 -4 0 -52 -26 -106 -57 -55 -32 -112 -65 -127 -73 -16 -8
-64 -35 -108 -60 -44 -24 -93 -51 -109 -60 -39 -20 -55 -45 -38 -62 10 -10 21
-8 56 10 83 44 211 120 238 141 14 12 32 21 40 21 7 0 30 11 50 25 20 14 41
25 47 25 5 0 16 6 23 13 7 6 40 26 73 43 74 38 217 119 270 153 22 14 48 29
58 33 21 9 22 34 1 42 -9 3 -16 6 -17 5 -1 0 -29 -17 -62 -36z"/>
<path d="M6905 5289 c-82 -21 -193 -49 -215 -54 -8 -2 -17 -4 -20 -5 -3 -1 -9
-2 -13 -1 -5 1 -32 -5 -60 -14 -29 -8 -126 -33 -217 -56 -173 -42 -210 -59
-177 -84 11 -7 24 -12 30 -10 18 6 200 57 217 60 207 43 534 127 549 141 12
11 12 16 1 28 -7 9 -15 16 -19 15 -3 -1 -37 -9 -76 -20z"/>
<path d="M1343 4870 c-33 -13 -28 -23 22 -43 63 -26 92 -52 105 -93 17 -49 5
-100 -28 -122 -20 -13 -56 -18 -167 -22 l-140 -5 -70 -40 c-85 -47 -175 -130
-225 -207 -38 -58 -60 -139 -60 -220 0 -69 -17 -95 -91 -139 -84 -49 -165
-127 -193 -188 -17 -38 -21 -64 -20 -146 0 -55 6 -119 13 -142 7 -26 9 -63 5
-94 -6 -44 -12 -54 -37 -68 -56 -30 -96 -72 -127 -133 -41 -84 -42 -169 -2
-271 16 -40 32 -84 36 -99 9 -39 -20 -106 -55 -123 -35 -19 -113 -119 -140
-182 -11 -26 -29 -90 -40 -142 -19 -89 -19 -97 -4 -175 26 -125 45 -185 82
-253 40 -73 79 -109 191 -176 66 -40 95 -51 168 -64 49 -8 91 -16 92 -18 2 -2
12 -59 22 -127 36 -232 76 -411 120 -523 23 -60 47 -125 53 -142 6 -18 14 -33
18 -33 4 0 -4 28 -18 62 -42 104 -110 343 -128 446 -8 53 -20 121 -25 151 -6
30 -10 78 -10 106 l0 52 66 11 c40 7 102 29 158 56 82 40 99 53 154 120 69 83
107 156 124 240 10 46 9 70 -6 144 -13 66 -17 119 -14 203 4 113 4 115 52 209
l48 94 -5 86 c-3 47 -8 95 -12 107 -10 31 21 37 180 37 160 -1 209 -14 213
-59 7 -69 35 -141 70 -180 21 -23 64 -73 97 -112 74 -88 85 -79 16 12 -75 97
-99 143 -120 229 -11 42 -25 84 -32 92 -31 37 -80 48 -229 48 -80 1 -164 -3
-187 -8 l-43 -9 0 66 c0 42 7 86 20 120 l20 54 118 6 c189 9 300 46 410 136
81 65 153 199 177 326 15 76 15 100 4 169 -21 139 -73 292 -89 266 -5 -9 -1
-29 12 -53 30 -60 60 -184 61 -257 4 -214 -74 -375 -227 -467 -33 -20 -68 -42
-77 -50 -8 -7 -68 -23 -132 -35 -102 -19 -123 -20 -172 -9 -30 7 -55 15 -55
19 1 4 7 18 15 32 21 36 18 85 -9 192 -64 248 -68 449 -10 509 46 48 115 63
259 55 114 -7 126 -6 193 18 87 30 153 74 193 129 52 72 62 104 63 207 1 92 0
98 -39 174 -55 108 -115 161 -232 203 -48 18 -117 37 -153 43 -79 12 -197 12
-227 0z"/>
<path d="M6213 4603 c-22 -8 -15 -42 10 -47 28 -7 718 -23 734 -18 17 5 25 34
13 46 -6 6 -89 11 -213 13 -111 1 -276 4 -367 7 -91 2 -171 1 -177 -1z"/>
<path d="M6176 4177 c-32 -23 -5 -45 137 -110 78 -36 219 -103 312 -148 358
-172 419 -200 434 -197 9 2 17 13 19 25 3 19 -9 28 -85 64 -48 23 -142 67
-208 99 -66 31 -138 65 -160 75 -22 10 -114 54 -205 98 -231 111 -224 108
-244 94z"/>
<path d="M1492 3215 c0 -16 2 -22 5 -12 2 9 2 23 0 30 -3 6 -5 -1 -5 -18z"/>
<path d="M1479 3110 c-6 -45 -4 -58 7 -48 3 3 4 26 2 49 l-3 44 -6 -45z"/>
<path d="M3157 2787 l-79 -32 -32 -95 -33 -95 -64 -6 c-83 -7 -103 -16 -180
-83 -66 -58 -105 -70 -129 -41 -15 18 -150 20 -295 5 -49 -5 -162 -10 -251
-12 l-160 -3 -2 -24 c-3 -34 -48 -108 -77 -127 -38 -25 -30 -43 32 -71 73 -33
156 -35 308 -5 395 77 496 87 551 53 17 -11 34 -31 38 -45 9 -38 -18 -93 -55
-114 -18 -9 -52 -38 -76 -63 -24 -26 -69 -59 -101 -74 -31 -15 -72 -35 -89
-45 l-33 -17 34 -24 c19 -13 33 -26 30 -30 -2 -4 4 -6 13 -5 9 0 17 -4 19 -9
4 -9 -176 -76 -200 -75 -6 0 -19 8 -30 19 -35 30 -115 51 -161 41 -22 -5 -71
-12 -110 -16 -55 -5 -65 -9 -49 -16 11 -5 28 -25 38 -43 10 -19 25 -36 32 -39
8 -3 14 -12 14 -20 0 -8 6 -17 13 -19 7 -3 5 -6 -5 -6 -10 -1 -18 -5 -18 -10
0 -17 -119 -34 -198 -27 -304 28 -493 183 -520 430 -7 63 -32 92 -32 37 0
-168 117 -344 283 -426 89 -44 85 -31 66 -206 -16 -150 -17 -173 -18 -281 -1
-97 -1 -98 -36 -137 -28 -30 -67 -53 -173 -100 -75 -33 -166 -67 -202 -75 -90
-22 -259 -21 -304 1 -29 13 -38 14 -51 3 -33 -28 -4 -110 40 -110 12 0 15 -16
15 -80 0 -108 15 -171 63 -264 56 -108 125 -174 241 -231 119 -59 225 -77 441
-77 136 0 180 4 290 27 211 44 166 48 -60 6 -169 -32 -345 -29 -505 8 -73 16
-144 39 -170 54 -48 29 -48 37 0 12 17 -9 30 -13 30 -9 0 3 10 0 23 -8 12 -8
43 -15 70 -17 26 -1 62 -7 79 -11 17 -5 35 -7 39 -4 5 3 9 1 9 -4 0 -5 10 -8
23 -7 12 1 65 -1 117 -5 63 -4 114 -3 150 6 30 6 109 20 175 29 152 22 350 68
428 100 33 13 63 22 67 20 12 -8 109 33 163 68 100 65 124 76 187 91 91 22 67
2 -116 -90 -171 -87 -265 -123 -347 -134 -58 -8 -75 -15 -65 -26 7 -6 109 12
188 33 57 16 293 130 371 178 24 16 87 70 139 120 81 78 112 101 210 150 79
41 131 75 166 110 55 54 108 137 102 157 -3 7 -23 -20 -47 -60 -23 -39 -57
-84 -76 -99 -32 -26 -217 -134 -222 -129 -1 1 4 20 12 41 34 94 3 209 -76 279
-30 27 -51 36 -110 46 -40 7 -94 10 -121 7 -42 -5 -48 -4 -48 12 0 30 -80 181
-118 223 -46 51 -108 86 -164 94 -65 9 -170 -24 -230 -73 -192 -156 -267 -205
-396 -256 -109 -44 -132 -46 -132 -14 0 28 -17 47 -43 47 -18 0 -19 5 -13 68
4 37 11 126 16 198 4 72 16 163 25 203 18 70 19 73 44 66 14 -3 61 -9 103 -12
90 -7 224 20 348 69 41 16 138 51 215 78 231 79 301 109 361 155 67 52 120 66
244 63 66 -2 93 1 123 16 60 30 125 100 159 172 28 60 30 72 26 145 -4 68 -9
86 -34 122 -26 36 -52 57 -88 70 -5 2 15 74 44 161 42 128 50 160 39 167 -20
13 -26 11 -112 -24z m103 11 c0 -7 -24 -85 -54 -173 l-53 -160 -73 -75 c-40
-41 -65 -62 -56 -47 25 40 18 71 -16 75 -16 2 -28 7 -28 11 0 10 83 245 103
291 13 30 25 38 89 62 85 31 88 32 88 16z m-265 -270 c-27 -96 -37 -113 -87
-143 -27 -16 -69 -50 -94 -74 -34 -35 -47 -42 -56 -33 -7 7 -29 12 -50 12 -36
0 -38 2 -38 33 0 17 -3 42 -6 55 -5 19 -2 22 21 22 19 0 44 17 89 60 72 69
112 89 179 90 45 0 48 -1 42 -22z m259 -111 c35 -46 50 -128 35 -192 -17 -73
-63 -158 -101 -187 -71 -54 -96 -61 -206 -59 -58 1 -120 -3 -139 -10 -19 -6
-36 -9 -38 -7 -2 2 2 28 10 58 20 75 19 161 -2 206 l-18 36 41 36 c78 71 112
92 150 92 20 0 17 -30 -6 -55 -25 -27 -12 -50 24 -41 28 7 70 47 91 88 22 39
63 68 101 68 26 0 39 -7 58 -33z m-624 -9 c13 -20 19 -46 18 -67 -3 -40 25
-31 -293 -85 -82 -14 -179 -32 -215 -40 -89 -21 -152 -20 -206 4 l-45 21 21
34 c12 19 28 49 37 67 30 60 35 62 192 71 80 4 200 11 266 16 213 14 203 15
225 -21z m220 -1399 c25 -5 59 -11 76 -13 45 -6 81 -32 110 -82 29 -50 25 -64
-17 -64 -22 0 -28 -4 -22 -12 4 -7 -5 -5 -20 5 -30 19 -56 14 -38 -7 6 -7 7
-17 3 -21 -4 -5 -1 -5 6 -1 17 10 27 -21 12 -39 -6 -8 -10 -20 -8 -27 8 -22
-44 -70 -70 -65 -16 3 -22 1 -18 -9 3 -9 -5 -7 -26 6 -30 18 -31 18 -77 -7
-40 -22 -54 -24 -111 -18 -36 3 -66 9 -68 14 -2 5 -12 7 -22 4 -11 -3 -20 0
-20 6 0 6 -10 11 -21 11 -17 0 -19 3 -10 13 6 8 8 17 4 20 -3 4 0 14 8 23 13
16 12 17 -8 12 -13 -4 -23 -5 -23 -4 0 9 38 45 43 40 3 -3 4 2 3 13 -2 10 1
24 7 31 5 7 7 15 3 19 -3 3 -6 1 -6 -5 0 -7 -7 -12 -15 -12 -8 0 -15 -4 -15
-10 0 -5 -4 -10 -10 -10 -5 0 -10 7 -10 15 0 8 -5 15 -11 15 -5 0 -7 -4 -4
-10 3 -5 -3 -10 -14 -10 -12 0 -21 7 -21 15 0 9 6 12 15 9 10 -4 18 3 25 21
13 35 46 76 53 68 4 -3 17 1 29 9 13 8 55 22 93 31 39 10 86 21 105 26 45 12
38 12 90 0z m-1070 -115 c0 -6 -21 -15 -47 -19 -64 -9 -147 -31 -174 -45 -12
-7 -43 -14 -68 -16 l-46 -5 97 60 c54 32 112 71 130 85 l33 25 37 -36 c21 -21
38 -42 38 -49z m-640 -582 c19 -9 45 -27 59 -38 l24 -22 -41 11 c-48 13 -64 4
-36 -19 13 -10 8 -9 -14 3 -31 16 -82 72 -82 88 0 10 49 -3 90 -23z"/>
<path d="M2658 953 c7 -3 16 -2 19 1 4 3 -2 6 -13 5 -11 0 -14 -3 -6 -6z"/>
<path d="M2558 836 c-10 -7 -15 -16 -11 -19 11 -12 23 -8 23 7 0 8 6 17 13 19
6 3 8 6 2 6 -5 0 -18 -6 -27 -13z"/>
<path d="M3160 1156 c-51 -19 -163 -77 -158 -81 2 -3 42 12 87 31 73 32 93 36
158 35 41 -1 91 -8 110 -16 49 -21 52 -12 6 19 -31 22 -48 26 -103 25 -36 0
-81 -6 -100 -13z"/>
<path d="M3421 1060 c0 -8 4 -24 9 -35 l9 -20 0 20 c0 11 -4 27 -9 35 -9 13
-10 13 -9 0z"/>
</g>
</svg>
